# Blender v2.75 (sub 0) OBJ File: 'Jenga_back.blend'
# www.blender.org
o LongBoxes_Cube.003
v 71.133682 -1.500000 -69.115677
v 71.133682 29.506193 -69.115677
v 121.133682 21.554451 7.473518
v 121.133682 29.506193 -69.115677
v 121.133682 39.752449 -69.115677
v 121.133682 39.752449 -109.115677
v 8.503120 -1.500000 -69.115677
v -111.379822 26.073475 -60.166443
v 8.503120 39.752449 -109.115677
v 8.503120 39.752449 -69.115677
v -87.529144 26.073475 -60.166443
v 8.503120 18.583698 -109.115677
v 8.503120 -1.500000 -83.121284
v 8.503120 18.583698 -83.121284
v -87.529144 -1.500000 -60.166439
v -111.379822 26.073475 4.769768
v -87.529144 26.073475 4.769768
v -87.529144 -1.500000 4.769768
v -111.379822 19.246645 85.139938
v -71.727661 19.246647 85.139938
v -71.727661 -1.500000 85.139938
v -111.379822 25.646185 85.139938
v -111.379822 25.646185 115.993958
v -25.080841 25.646187 115.993958
v -25.080841 25.646187 85.139938
v -25.080841 -1.500000 85.139938
v -25.080841 20.026999 85.139938
v -25.080849 20.026999 115.993958
v 90.780136 21.554451 77.360268
v 90.780144 -1.500000 7.473518
v 90.780136 21.554451 7.473518
v 90.780136 -1.500000 77.360268
v 121.133682 21.554451 77.360268
vt 0.502240 0.035248
vt 0.999258 0.035248
vt 0.625689 0.542341
vt 0.507632 0.988795
vt 0.507632 0.313602
vt 0.751930 0.752382
vt 0.004627 0.001945
vt 0.004627 0.998419
vt 0.490733 0.998419
vt 0.496565 0.000866
vt -0.000084 0.000866
vt -0.000084 0.996992
vt 0.570627 0.042377
vt 0.570627 0.991990
vt 0.995590 0.991990
vt 0.999587 0.035632
vt 0.999587 0.999579
vt 0.925898 0.478541
vt 0.496849 0.000441
vt 0.001296 0.000441
vt 0.001296 0.999716
vt 0.998933 1.000081
vt 0.998933 0.616468
vt 0.940265 0.616468
vt 0.000563 0.008087
vt 0.000563 0.994384
vt 0.491549 0.994384
vt 0.995845 0.040469
vt 0.735452 0.040469
vt 0.735452 1.000344
vt 0.625689 0.947170
vt 0.502240 0.947170
vt 0.999258 0.542341
vt 0.983706 0.752382
vt 0.983706 0.988795
vt 0.751930 0.313601
vt 0.490733 0.001945
vt 0.496565 0.996992
vt 0.995590 0.042377
vt 0.925898 0.035632
vt 0.687004 0.999580
vt 0.687004 0.478541
vt 0.934883 0.999579
vt 0.496849 0.999716
vt 0.940265 1.000081
vt 0.491549 0.008087
vt 0.995845 1.000344
vn -0.000000 0.000000 1.000000
vn -1.000000 0.000000 0.000000
vn 0.000000 1.000000 0.000000
vn 1.000000 0.000000 0.000000
vn 0.000000 0.000000 -1.000000
s off
f 10/1/1 7/2/1 2/3/1
f 10/4/2 9/5/2 14/6/2
f 8/7/3 16/8/3 17/9/3
f 9/10/3 10/11/3 5/12/3
f 11/13/4 17/14/4 18/15/4
f 22/16/5 25/17/5 20/18/5
f 24/19/3 25/20/3 22/21/3
f 28/22/4 27/23/4 25/24/4
f 31/25/3 29/26/3 33/27/3
f 31/28/2 30/29/2 32/30/2
f 2/3/1 4/31/1 5/32/1
f 7/2/1 1/33/1 2/3/1
f 2/3/1 5/32/1 10/1/1
f 14/6/2 13/34/2 7/35/2
f 9/5/2 12/36/2 14/6/2
f 14/6/2 7/35/2 10/4/2
f 11/37/3 8/7/3 17/9/3
f 6/38/3 9/10/3 5/12/3
f 15/39/4 11/13/4 18/15/4
f 20/18/5 19/40/5 22/16/5
f 26/41/5 21/42/5 20/18/5
f 20/18/5 25/17/5 27/43/5
f 27/43/5 26/41/5 20/18/5
f 23/44/3 24/19/3 22/21/3
f 24/45/4 28/22/4 25/24/4
f 3/46/3 31/25/3 33/27/3
f 29/47/2 31/28/2 32/30/2
