# Blender v2.75 (sub 0) OBJ File: 'Jenga_back.blend'
# www.blender.org
o TallBoxes_Cube.006
v 19.866051 20.026999 115.993958
v 121.133682 21.554449 7.473515
v 121.133675 29.506191 -19.115681
v -17.117264 18.583696 -109.115677
v -17.117264 -1.500002 -83.121277
v -17.117264 18.583696 -83.121277
v -111.379822 32.696114 45.936737
v -17.117264 -1.500002 -73.317604
v -67.149384 -1.500002 -73.317604
v -17.117264 30.892220 -109.115677
v -67.149384 30.892220 -109.115677
v -67.149384 30.892220 -73.317604
v -17.117264 30.892220 -73.317612
v -111.379822 26.073473 4.769772
v -87.529144 26.073473 4.769772
v -87.529144 -1.500002 4.769772
v -79.045776 32.696114 45.936722
v -79.045776 -1.500002 45.936722
v -70.698364 -1.500002 45.936722
v -70.698364 -1.500002 4.769772
v -111.379822 41.750793 4.769772
v -111.379822 41.750793 45.936737
v -70.698364 41.750793 4.769772
v -70.698364 41.750793 45.936722
v 66.924385 20.026997 115.993973
v 19.866051 -1.500002 82.243370
v 19.866051 20.026997 82.243378
v 66.924393 -1.500002 82.243378
v 19.866051 33.192730 82.243378
v 66.924393 33.192730 82.243393
v 19.866043 33.192730 115.993958
v 66.924385 33.192730 115.993973
v 66.924385 -1.500002 88.723740
v 66.924385 20.026997 88.723755
v 83.858078 20.026997 115.993973
v 121.133675 43.929939 7.473515
v 83.858078 -1.500002 88.723740
v 83.858078 20.026997 88.723755
v 90.780136 21.554451 77.360268
v 90.780136 -1.500002 7.473515
v 83.858078 -1.499990 77.360268
v 90.780136 21.554449 7.473515
v 121.133675 52.479103 115.993988
v 83.858078 52.479103 115.993988
v 90.780128 29.506191 -19.115681
v 121.133675 52.479118 77.360268
v 83.858078 52.479118 77.360268
v 121.133675 43.929939 -19.115681
v 90.780136 -1.500002 77.360268
v 121.133682 21.554451 77.360268
v 83.329773 43.929939 -19.115681
v 83.329773 43.929939 7.473515
v 83.329781 -1.500002 7.473515
v 83.329781 -1.500002 -19.115681
v 83.329773 29.506191 -19.115681
vt 0.517703 0.094234
vt 0.413991 0.094234
vt 0.413991 0.531043
vt 0.849784 0.985551
vt 0.017374 0.985551
vt 0.548057 0.616952
vt 0.107200 0.880497
vt 0.107200 0.230031
vt 0.803679 0.230031
vt 0.953489 0.865267
vt 0.069386 0.865267
vt 0.069386 0.093279
vt 0.337541 0.849171
vt 0.337541 0.039733
vt 0.502790 0.541598
vt 0.967327 0.229080
vt 0.967327 0.977101
vt 0.401017 0.977101
vt 0.770079 0.997915
vt 0.061764 0.997915
vt 0.624738 0.789562
vt 0.752826 0.999442
vt 0.000596 0.999442
vt 0.000596 0.001316
vt 0.091708 0.386391
vt 0.746788 0.386391
vt 0.746788 0.999653
vt 0.104728 0.648658
vt 0.104728 0.985359
vt 0.883590 0.985359
vt 0.857460 0.966079
vt 0.014746 0.966079
vt 0.442400 0.795557
vt 0.728402 0.104843
vt 0.728402 0.958811
vt 0.617772 0.634734
vt 0.400769 0.736482
vt 0.400769 0.105412
vt 0.999630 0.105410
vt 0.797323 0.129629
vt 0.797323 0.831620
vt 0.278423 0.831620
vt 0.570228 0.843535
vt 0.995167 0.843535
vt 0.995167 0.999656
vt 0.880775 0.347647
vt 0.608782 0.944911
vt 0.024088 0.347647
vt 0.206582 0.626360
vt 0.206582 0.143223
vt 0.732835 0.143223
vt 0.987235 0.655174
vt 0.987235 0.983267
vt 0.405661 0.983267
vt 0.940243 0.531043
vt 0.940243 0.094234
vt 0.548057 0.094618
vt 0.849784 0.094618
vt 0.017374 0.616952
vt 0.803679 0.880497
vt 0.953489 0.093279
vt 0.940948 0.541598
vt 0.940948 0.849171
vt 0.502790 0.039733
vt 0.401017 0.229080
vt 0.624738 0.002692
vt 0.770079 0.002692
vt 0.061764 0.789562
vt 0.752826 0.001316
vt 0.091708 0.999653
vt 0.883590 0.098126
vt 0.104728 0.098126
vt 0.442400 0.100826
vt 0.857460 0.100826
vt 0.014746 0.795557
vt 0.152223 0.958811
vt 0.152223 0.634734
vt 0.617772 0.104843
vt 0.003516 0.999447
vt 0.003516 0.736483
vt 0.999631 0.999447
vt 0.278423 0.129629
vt 0.000225 0.158949
vt 0.570228 0.158949
vt 0.000225 0.999656
vt 0.880775 0.944911
vt 0.024088 0.944911
vt 0.732835 0.626360
vt 0.405661 0.655174
vn 0.000000 0.000000 -1.000000
vn 0.000000 1.000000 0.000000
vn 0.000000 0.000000 1.000000
vn 1.000000 0.000000 0.000000
vn -1.000000 -0.000000 0.000000
s off
f 45/1/1 55/2/1 51/3/1
f 23/4/1 20/5/1 15/6/1
f 11/7/2 12/8/2 13/9/2
f 13/10/3 12/11/3 9/12/3
f 13/13/4 8/14/4 6/15/4
f 24/16/2 23/17/2 21/18/2
f 24/19/3 22/20/3 17/21/3
f 23/22/4 24/23/4 19/24/4
f 31/25/2 32/26/2 30/27/2
f 27/28/1 29/29/1 30/30/1
f 52/31/3 53/32/3 42/33/3
f 28/34/4 30/35/4 34/36/4
f 38/37/5 35/38/5 44/39/5
f 43/40/2 46/41/2 47/42/2
f 39/43/1 49/44/1 41/45/1
f 52/46/5 55/47/5 53/48/5
f 51/49/2 52/50/2 36/51/2
f 1/52/5 31/53/5 29/54/5
f 48/55/1 3/56/1 45/1/1
f 45/1/1 51/3/1 48/55/1
f 15/6/1 14/57/1 21/58/1
f 20/5/1 16/59/1 15/6/1
f 15/6/1 21/58/1 23/4/1
f 10/60/2 11/7/2 13/9/2
f 8/61/3 13/10/3 9/12/3
f 6/15/4 4/62/4 10/63/4
f 8/14/4 5/64/4 6/15/4
f 6/15/4 10/63/4 13/13/4
f 22/65/2 24/16/2 21/18/2
f 17/21/3 18/66/3 19/67/3
f 22/20/3 7/68/3 17/21/3
f 17/21/3 19/67/3 24/19/3
f 20/69/4 23/22/4 19/24/4
f 29/70/2 31/25/2 30/27/2
f 28/71/1 26/72/1 27/28/1
f 27/28/1 30/30/1 28/71/1
f 42/33/3 2/73/3 36/74/3
f 53/32/3 40/75/3 42/33/3
f 42/33/3 36/74/3 52/31/3
f 32/76/4 25/77/4 34/36/4
f 34/36/4 33/78/4 28/34/4
f 30/35/4 32/76/4 34/36/4
f 41/79/5 37/80/5 38/37/5
f 38/37/5 44/39/5 47/81/5
f 47/81/5 41/79/5 38/37/5
f 44/82/2 43/40/2 47/42/2
f 46/83/1 50/84/1 39/43/1
f 39/43/1 41/45/1 47/85/1
f 47/85/1 46/83/1 39/43/1
f 55/47/5 52/46/5 51/86/5
f 55/47/5 54/87/5 53/48/5
f 48/88/2 51/49/2 36/51/2
f 27/89/5 1/52/5 29/54/5
